<svg xmlns="http://www.w3.org/2000/svg" xml:space="preserve" width="512" height="512" viewBox="0 0 32 32"><path xmlns="http://www.w3.org/2000/svg" fill="#fff" d="M31.06.94a3.21 3.21 0 0 0-3.34-.75L2.19 10.72a3.19 3.19 0 0 0-.54 5.82l.11.05 10.07 4.17a1.14 1.14 0 0 0 1.17-.24l5.27-5.27a1.07 1.07 0 1 0-1.51-1.51L12 18.51l-9.37-3.86a1 1 0 0 1-.5-1 1.09 1.09 0 0 1 .79-.94L28.46 2.19a1.06 1.06 0 0 1 1.09.25 1 1 0 0 1 .28 1l-10.57 25.7a1 1 0 0 1-.91.72 1 1 0 0 1-1-.5l-2.58-6.23a1.07 1.07 0 0 0-2 .82l2.61 6.3.05.11A3.14 3.14 0 0 0 18.24 32h.31a3.13 3.13 0 0 0 2.71-2.1L31.83 4.21a3.18 3.18 0 0 0-.77-3.27" data-original="#000000"/></svg>