<svg xmlns="http://www.w3.org/2000/svg"><defs><font id="BackOutWebMedium" horiz-adv-x="1990"><font-face ascent="1638" descent="-410" units-per-em="2048"/><glyph horiz-adv-x="0"/><glyph horiz-adv-x="2048"/><glyph horiz-adv-x="307"/><glyph horiz-adv-x="307"/><glyph horiz-adv-x="307"/><glyph d="m97 0 52 417h172V0zm0 550 47 417v799h172V550zm47 1216" horiz-adv-x="417" unicode="!"/><glyph d="m96 1325 128 220 92 225 205-1-184-444zm379 1 127 221 93 225 204-2-184-444z" horiz-adv-x="995" unicode="&quot;"/><glyph d="M92 811v265l284-32-22 200h265l-25-215h246l-25 221h265l-24-205 279 31V811l-301 34-1-11V423l2-19 307 35V174l-285 32 23-199H815l24 214H594L619 0H354l23 205-279-31v265l301-34 2 12v410l-2 19zm480-394 3-25h283l4 31v411l-3 24H575l-3-31zm3 441" horiz-adv-x="1433" unicode="#"/><glyph d="M87 1266q-2 117 30.5 220.5t103 183T387 1772l-7 69h264l-6-60 196-1-19-174H618l-20-182V968q109-10 187.5-79.5t114-168.5T937 505t-30.5-219-103-181T637 6l7-71H380l7 64-264 1 20 170h263l20 182v443q-109 12-187.5 83t-114 171T87 1266m204 22q0-96 32.5-178.5T412 970h14v454l-19 177q-53-57-84.5-138.5T291 1288m307-936 20-182h1q55 56 86.5 137.5T737 482t-32 173-87 137h-20zm0 440" horiz-adv-x="1024" unicode="$"/><glyph d="M89 1769h395l-27-246v-456l27-244H90zM195 0l301 521 511 1244h196L484 0zm46 978 64-1v636h-53l-11-86zm741-32h395l-27-246V245l27-245H983zm152-791 64-1v637h-53l-11-86z" horiz-adv-x="1466" unicode="%"/><glyph d="m89 1 47 417v931l-47 418h591l-1-1030H308V179h475l1 1583v250h-42l-417-52v224h1143v-172H987l-30-245L955 0zm219 914h199v436l-29 237H308zm0 673" horiz-adv-x="1556" unicode="&amp;"/><glyph d="m97 1323 128 221 92 225 204-1-183-445zm241 0" horiz-adv-x="618" unicode="'"/><glyph d="m90 0 46 417v934l-46 417h451v-178H309V178h232V0zm0 1768" horiz-adv-x="630" unicode="("/><glyph d="M90 0v178h232v1412H90v178h451l-47-417V417L541 0zm451 1768" horiz-adv-x="630" unicode=")"/><glyph d="M89 1192v206l244-27h111l-38 93-177 305h223l109-266 108 266h224l-177-305-38-93h111l245 27v-206l-242 27H678l38-92 177-306H669l-108 267-109-267H229l177 306 38 92H330zm140 577" horiz-adv-x="1122" unicode="*"/><glyph d="M87 781v264l416-46h394v352l-47 417h265l-47-417V999h370l417 46V781l-417 46h-370V417l47-417H850l47 417v410H503z" horiz-adv-x="1941" unicode="+"/><glyph d="M3-297 213 0l92 225 205-1-217-521zm302 522" horiz-adv-x="606" unicode=","/><glyph d="M103 728v224h414l417 52V780H519zm831 276" horiz-adv-x="1036" unicode="-"/><glyph d="m107 0 52 417h172V0zm224 0" horiz-adv-x="438" unicode="."/><glyph d="m86 0 301 521 511 1244h196L375 0zm812 1765" horiz-adv-x="1179" unicode="/"/><glyph d="M97 0v1760h650l-47-417V417L747 0zm172 179 259-1v1404H298l-29-237zm259-1" horiz-adv-x="843" unicode="0"/><glyph d="m91 0 47 417v925l-47 416h265l-47-416V417L356 0zm0 1758" horiz-adv-x="446" unicode="1"/><glyph d="m87 0 328 1211h356v378l-325-10v-150H274v333h669v-308l51-417-421 1-217-866h221l416 52V0zm187 1762" horiz-adv-x="1081" unicode="2"/><glyph d="M86 0v224l417-52h141L420 717l-301 521 502-3v350H297v-150H125v328h668v-284l52-417-365 1 363-891L913 0zm0 0" horiz-adv-x="999" unicode="3"/><glyph d="m86 505 514 1258h289l-301-520-235-566 392 1v412h223l-51-412h132V505H917l1-505H694l52 417v88zm514 1258" horiz-adv-x="1134" unicode="4"/><glyph d="M87 1758h906v-224l-416 52H356l217-866 421 1-51-417V0H274v328h172V178h325v369H415zM274 0" horiz-adv-x="1081" unicode="5"/><glyph d="m96 0 46 417v935l-46 417h584v-179H315V179h170l29 236v437H371v178h315V0zm0 1769" horiz-adv-x="782" unicode="6"/><glyph d="M86 1593v172h1037L399 0H114l301 521 440 1072zm0 172" horiz-adv-x="1208" unicode="7"/><glyph d="M92 862v904h591l-47-418v-308h140V0H186l46 417v445zm172 179h142V179h169l29 236v446H462v726H294l-30-237zm30 546" horiz-adv-x="868" unicode="8"/><glyph d="M96 738v1031h590l-46-418V417L686 0H103v178h364v1412H297l-29-237V917h143V739zM686 0" horiz-adv-x="782" unicode="9"/><glyph d="m103 0 52 417h172V0zm0 573v417h224l-52-417zM327 0" horiz-adv-x="430" unicode=":"/><glyph d="M90-521 391 0l93 225 204-1-308-745zM450 829h223V412H501zm34-604" horiz-adv-x="778" unicode=";"/><glyph d="m85 882 360 883h289l-301-521-149-362 149-361L734 0H445zm649 883" horiz-adv-x="819" unicode="&lt;"/><glyph d="M106 637v265l417-47h410l417 47V637l-417 47H523zm7-637v265l416-47h411l416 47V0L940 47H529zm1237 902" horiz-adv-x="1462" unicode="="/><glyph d="m85 0 301 521 149 361-149 362-301 521h290l359-883L375 0zm0 1765" horiz-adv-x="819" unicode="&gt;"/><glyph d="m92 0 52 417h172V0zm0 550 47 417v255l450-1v369H265v-150H92v328h669v-304l52-416-502 1V550zm0 1218" horiz-adv-x="905" unicode="?"/><glyph d="m87 0 47 417v1349l865-1-46-417v-319h168V851H953V417L999 0H409v1030l371-1v558H306V0zm494 415 29-236h170v672H581zm0 436" horiz-adv-x="1208" unicode="@"/><glyph d="m85 0 301 521 511 1244h290L1906 0h-196l-245 595H617L375 0zm602 768h707l-196 476-186 322zm325 798" unicode="A"/><glyph d="m87 0 46 421v935l-46 418h353q101-1 178.5-50T740 1598q43-78 62-176 12-65 12-128 0-34-3-67-10-97-46.5-187.5T668 889q68-51 112.5-138.5T840 566q8-48 8-98t-8-100q-15-102-56.5-182.5T664 53 484 0zm209 155h244q57 57 90.5 141T664 476q0 95-33 178.5T541 795l-245-1zm0 798h203q59 59 93 145t34 184q0 99-34.5 185T498 1612H296zm245-158" horiz-adv-x="933" unicode="B"/><glyph d="M92 737q-3 51-3 102 0 96 10 192 15 147 71 280t133.5 235.5 193.5 163 251 60.5l222-2-20-178H603q-130-124-205.5-309T322 885q0-213 76-398.5T606 178h344L970 0 748-9Q599-8 477 54T278.5 219.5 151 456.5 92 737m656 1033" horiz-adv-x="1056" unicode="C"/><glyph d="m85 0 47 417v934l-47 417 344 2q135 0 251-60.5t193.5-163T1007 1311t71-280q10-96 10-192 0-51-3-102-8-147-59-280.5t-127.5-237T700 54 429-9zm219 178h267q132 123 208 308.5T855 885q0 211-75.5 396T574 1590H304zm0 1412" horiz-adv-x="1175" unicode="D"/><glyph d="m87 0 47 417v934l-47 417h584v-178H306V951l365 45-1-224H306V178h365V0zm0 1768" horiz-adv-x="757" unicode="E"/><glyph d="m85 0 47 417v934l-47 417h584v-178H304V951l365 45-1-224H304V0zm0 1768" horiz-adv-x="753" unicode="F"/><glyph d="M92 746q-3 51-3 102 0 96 10 192 15 147 71 280t133.5 235.5 193.5 163 251 60.5l394-2-20-178H604q-130-124-205.5-309T323 894q0-213 76-398.5T606 187h330v575H519v224l416-51h174l-1-698 29-237H748Q599 1 477 63T278.5 228.5 151 465.5 92 746m656 1033" horiz-adv-x="1228" unicode="G"/><glyph d="m86 0 47 417v934l-47 417h217l2-862h339v862h220l-46-417V417L864 0H643l1 736H304V0zm0 1768" horiz-adv-x="950" unicode="H"/><glyph d="m87 0 47 417v756l-47 416h264l-46-416V417L351 0zm2 1875h223v-218H116z" horiz-adv-x="438" unicode="I"/><glyph d="M86 1120h224V178h278v1590h219l-47-417V0H138v704zm502 648" horiz-adv-x="892" unicode="J"/><glyph d="m86 0 47 417v934l-47 417h264l-46-417V417L350 0zm264 882 360 883h290l-302-521-148-362 148-361L1000 0H710zm650 883" horiz-adv-x="1085" unicode="K"/><glyph d="M95 1765h172V417l30-245h481V0H96zm0 0" horiz-adv-x="872" unicode="L"/><glyph d="m86 0 47 417v936l-47 416h217v-11l406-987 405 985v11h217l-47-416V415l47-417h-217v1276L809 527H609l-306 749V0zm0 1769" horiz-adv-x="1417" unicode="M"/><glyph d="m86 0 47 417v936l-47 416h218L813 518l81-140v1391h217l-46-416V417l49-419H824L304 1276V0zm808 1769" horiz-adv-x="1200" unicode="N"/><glyph d="M92 746q-3 51-3 102 0 96 10 192 15 147 71 280t133.5 235.5 193.5 163 251 60.5h106q135 0 251-60.5t193.5-163T1432 1320t71-280q10-96 10-192 0-51-3-102-8-147-59-280.5t-127.5-237T1125 63 854 0H748Q599 1 477 63T278.5 228.5 151 465.5 92 746m230 148q0-213 76-398.5T606 187h390q131 123 207 308.5t76 398.5q0 212-75.5 396.5T998 1599H603q-131-124-206-308.5T322 894m676 705" horiz-adv-x="1601" unicode="O"/><glyph d="m86 0 46 417v934l-46 417h393q107 0 198.5-47T830 1594t105-184q43-103 55-217 7-73 8-146 0-41-2-83-6-114-47-218T848 561.5 692 433t-213-49h-1l-172 8L350 0zm219 574h270q92 89 145 221.5t53 284.5q0 151-53 283t-144 221H330l-25-233zm25 1010" horiz-adv-x="1085" unicode="P"/><glyph d="m86 0 46 417v934l-46 417h882l-47-417V417L968 0H737l19-46 301-520H768L533 0zm219 178h223l136 1v-1h84v1412H305zm0 1412" horiz-adv-x="1142" unicode="Q"/><glyph d="m86 0 47 417v936l-47 416h422q113-1 195.5-64T825 1546t45-210q1-20 1-38 0-93-24-180-29-104-95-185T594 826l125-305L1020 1H730L399 815h-95V0zm218 970h260q57 57 90 140.5t33 178.5q0 96-33 180t-90 141H304zm0 640" horiz-adv-x="1105" unicode="R"/><glyph d="M92 1183q-8 47-7 94-1 59 11 117 22 106 65.5 192t124 140.5T466 1781l368-1-19-174H412q-56-57-88.5-140T291 1288q0-96 32.5-178.5T412 970h154q83-1 151-34.5t111-90T900 716q29-74 34-154 2-31 2-61 0-49-5-99-8-80-39-153t-74.5-129-109-89T566-2L123 0l20 170h476q55 56 86.5 137.5T737 482t-32 173-87 137H466q-108 1-191 56T151 990.5 92 1183m374 598" horiz-adv-x="1024" unicode="S"/><glyph d="M86 1542v223h1143v-172H748l-30-245V0H545v1593h-42zm0 223" horiz-adv-x="1314" unicode="T"/><glyph d="M86 1768h219V178h278v1590h224l-51-417V0H133v1351zm0 0" horiz-adv-x="892" unicode="U"/><glyph d="M85 1765h290l637-1566 186 322 512 1244h196L1187 0H897L386 1244zM897 0" unicode="V"/><glyph d="M86 1765h290l637-1566 186 322 127 308-171 415-301 521h290l282-693 284 693h197l-382-937 256-629 186 322 511 1244h197L1956 0h-290l-240 585L1188 0H898L387 1244zm0 0" horiz-adv-x="2760" unicode="W"/><glyph d="m86 0 301 521 148 361-148 362-301 521h289l260-639 263 639h196L735 882 1094 0H898L635 639 375 0zm0 1765" horiz-adv-x="1179" unicode="X"/><glyph d="m86 0 301 521 148 361-148 362-301 521h289l260-639 263 639h196L375 0zm0 1765" horiz-adv-x="1179" unicode="Y"/><glyph d="M87 1593v172h1036L474 172h656V0H115l301 521 440 1072zm0 172" horiz-adv-x="1216" unicode="Z"/><glyph d="m90 0 46 417v934l-46 417h451v-178H309V178h232V0zm0 1768" horiz-adv-x="630" unicode="["/><glyph d="M86 1765h289L1094 0H898L387 1244zM898 0" horiz-adv-x="1179" unicode="\"/><glyph d="M90 0v178h232v1412H90v178h451l-47-417V417L541 0zm451 1768" horiz-adv-x="630" unicode="]"/><glyph d="M113 1769v219h520v-219l-260 29z" horiz-adv-x="745" unicode="^"/><glyph d="M111-47v265l417-47h935l416 47V-47L1463 0H528zm1768 265" unicode="_"/><glyph d="M113 1769h520v172H529l-416 47zm0 0" horiz-adv-x="745" unicode="`"/><glyph d="m87 0 245 424 390 949h250L1531 0h-200l-183 446H545L363 0zm530 625h458L941 949l-112 194zm212 518" horiz-adv-x="1617" unicode="a"/><glyph d="m86 0 38 343v696l-38 341h293q108-3 190-83.5T675 1096q9-50 9-100 0-60-12-118-24-110-88-184 73-66 104-176 20-72 20-145 0-38-5-76-18-125-90.5-205.5T412 0zm209 165h147q80 87 80 216 0 128-80 215H295zm0 599h116q82 91 82 222 0 135-83 223H295zm147-168" horiz-adv-x="794" unicode="b"/><glyph d="M90 572q-2 41-3 82-1 72 7 146 12 114 56 217.5T255 1201t152.5 127 198.5 47l194-2-21-182H508q-91-89-144-221t-53-283q0-152 53.5-284.5T510 181h269L800 0 607-8h-1Q489-7 393 41T237 169.5 136.5 354 90 572m516 803" horiz-adv-x="884" unicode="c"/><glyph d="m86 0 38 336v702l-38 336 286 2q107 0 198.5-47T723 1202t105-183 56-217q7-73 7-147-1-41-3-83-6-114-46.5-217.5T741 170.5 585 42 372-7h-1zm217 182h165q92 89 145 221.5T666 688q0 151-53 283t-144 221H303zm0 1010" horiz-adv-x="978" unicode="d"/><glyph d="m89 0 38 340v695l-38 340h490v-183H306V766l273 34-1-221H306V183h273V0zm0 1375" horiz-adv-x="667" unicode="e"/><glyph d="m87 0 38 340v695l-38 340h490v-183H303V766l274 34-1-221H304V0zm0 1375" horiz-adv-x="663" unicode="f"/><glyph d="M86 695q3 105 25.5 204t66.5 187.5T282.5 1241t144 104.5T607 1384l194-2-21-183H509q-91-89-144-221t-53-283q0-152 53.5-284T511 190h89v382H473v182h305V205L803 0H606Q500 1 412 40.5t-148.5 106-102 155.5T102 490q-16 88-16 179zm521 689" horiz-adv-x="888" unicode="g"/><glyph d="m86 0 38 337v701l-38 337h215l1-646h206v646h217l-38-340V340L725 0H507v552H302V0zm0 1375" horiz-adv-x="811" unicode="h"/><glyph d="m88 0 39 340v527l-39 340h254l-38-337V337L342 0zm1 1455h221v-212H115zm0 0" horiz-adv-x="430" unicode="i"/><glyph d="m87 890 220-1V183h160v1192h216l-38-340V0H129v553zm380 485" horiz-adv-x="770" unicode="j"/><glyph d="m86 0 38 340v695l-38 340h254l-38-340V340L340 0zm250 686 280 686h277L646 945 539 686l107-260L893 0H616zm280 686" horiz-adv-x="978" unicode="k"/><glyph d="M94 1373h178V341l20-163h364V0H95zm0 0" horiz-adv-x="749" unicode="l"/><glyph d="m87 0 38 340v696l-38 340h215l280-709 279 708h215l-38-337V335l38-336-215-1v857L674 395H490L302 856V0zm0 1376" horiz-adv-x="1163" unicode="m"/><glyph d="m87 0 38 340v696l-38 340h207l387-950 14-60v1010h216l-38-340V340L913-2H651L302 855V0zm608 1376" horiz-adv-x="999" unicode="n"/><glyph d="m86 0 38 337v701l-38 337h716l-38-340V340L802 0zm217 183h283v1009H303zm0 1009" horiz-adv-x="888" unicode="o"/><glyph d="m86 0 38 340v695l-38 340h322q96 0 175.5-46.5t130-122.5 79-173T824 834v-18q0-92-23-180-25-97-74-173.5t-131.5-124T409 290H307L339 0zm216 480h167q63 63 99.5 155.5T605 834q0 105-36.5 198T470 1188H319l-17-153zm17 708" horiz-adv-x="909" unicode="p"/><glyph d="m86 0 38 337v701l-38 337h716l-38-339V340L802 0H639l246-425H609L433 0zm216 183h284v1009H302zm0 1009" horiz-adv-x="970" unicode="q"/><glyph d="m87 0 37 334v698q-6 55-18.5 167T87 1366h339q134-1 214-108 70-94 77-234 1-13 1-26 0-119-50-221-53-108-150-147l87-213L847-1H582q-43 108-127 313T333 612h-41V0zm205 766h166q82 89 82 220 0 134-82 221H292zm0 441" horiz-adv-x="933" unicode="r"/><glyph d="M90 926q-2 27-2 53 0 39 4 77 6 66 32 125t62 104.5 90.5 72.5 118.5 27h1l303-1-20-179H367q-78-86-78-215 0-128 78-214h104q100-1 171-59 72-59 102-145 29-81 28-174v-12q-2-100-35-186.5t-103.5-144T470-2L111 0l21 176h366q76 84 76 209t-76 209H395q-68 1-124.5 28.5t-92.5 73-60 105T90 926m305 459" horiz-adv-x="860" unicode="s"/><glyph d="M86 1153v220h906v-178H628l-20-162V0H430v1195h-7zm0 220" horiz-adv-x="1077" unicode="t"/><glyph d="M85 1375h216V183h160v1192h220l-42-337V0H123v1038zM123 0" horiz-adv-x="765" unicode="u"/><glyph d="M87 1373h276L829 230l112 194 390 949h200L972 0H722L332 949zM722 0" horiz-adv-x="1617" unicode="v"/><glyph d="M85 1373h277L827 229l114 199 91 218-124 300-247 427h277l195-479 197 479h200l-296-727 169-416 114 196 389 947h200L1547 0h-250l-164 399L971 0H721L332 946zm0 0" horiz-adv-x="2191" unicode="w"/><glyph d="m86 0 246 424 108 263-108 262-246 424h276l179-439 180 439h201L642 687 922 0H721L541 439 362 0zm0 1373" horiz-adv-x="1007" unicode="x"/><glyph d="m86 0 246 424 108 263-108 262-246 424h276l179-439 180 439h200L362 0zm0 1373" horiz-adv-x="1007" unicode="y"/><glyph d="M86 1194v179h839L438 178h480V0H90l247 428 315 766zm0 179" horiz-adv-x="1011" unicode="z"/><glyph d="m90 0 46 417v934l-46 417h451v-178H309V178h232V0zm0 1768" horiz-adv-x="630" unicode="{"/><glyph d="M87 1769h217l1-1352L352 0H134l-1 1353zm0 0" horiz-adv-x="438" unicode="|"/><glyph d="M90 0v178h232v1412H90v178h451l-47-417V417L541 0zm451 1768" horiz-adv-x="630" unicode="}"/><glyph d="M111 1545v224h414l417 52v-224H527zm831 276" horiz-adv-x="1052" unicode="~"/><glyph d="M87.5 887q2.5 105 25 204t66.5 187.5T283.5 1433t144 104.5T608 1576h5l-22 192h265l-22-193 238-1-20-183H814l-5-40V417l4-35h239l20-182-238-4L856 0H591l22 192h-6q-106 1-194 40.5t-148.5 106-102 155.5T103 682.5 87.5 887m225.5 1q0-152 53.5-284.5T512 382h122l4 35v934l-5 40H510q-91-89-144-220.5T313 888m197 503" horiz-adv-x="1159" unicode="¢"/><glyph d="M87 621v264l281-31-1 913h623v-366l51-417-224 1 1 603H539V839h375l416 46V621l-416 47H539V417l31-245h480V0H368v652zm280 1146" horiz-adv-x="1417" unicode="£"/><glyph d="M86 1776h290l260-639 262 639h196L746 920l-7-63 387 44V636l-407 46-1-11V522l408 46V304l-400 45L765 0H500l39 348-394-44v264l402-45v148l-1 10-401-45v265l381-43-9 81-130 316zm0 0" horiz-adv-x="1212" unicode="¥"/><glyph d="M87 1769h217l1-736H133v320zM134 0v736h171V417L352 0zm0 736" horiz-adv-x="438" unicode="¦"/><glyph d="m92 1160 51 417v187h669v-328H640v145H315v-247l451 1v-255l47-416-51-416V0H93v328h172V178h325v313l-451-1v255zm219-497 283 1v498l-283-1zm283 499" horiz-adv-x="905" unicode="§"/><glyph d="M110 1987h224v-218H137zm290 0h223v-218H427zm0 0" horiz-adv-x="733" unicode="¨"/><glyph d="m87-382 46 417v1744h1293V421l51-421H943Q794 1 680 78T510 276.5 430 545t6.5 293.5 90 267.5T696 1302.5t247 75.5h194l-21-184H845q-91-89-144-220.5T648 691q0-152 53.5-284.5T847 185h406v1416H306V-204h1172v-178zm46 2161" horiz-adv-x="1564" unicode="©"/><glyph d="M90 499v224h415l416 52V551H507zm113 321 390 949h139V820zm238 154h136v389zm480-199" horiz-adv-x="1011" unicode="ª"/><glyph d="m86 882 359 883h290l-301-521-149-362 149-361L735 0H445zm381 0 148 363 200-1-148-362 147-359H613zm268 883" horiz-adv-x="901" unicode="«"/><glyph d="M103 728v224h414l417 52V780H519zm831 276" horiz-adv-x="1036" unicode="­"/><glyph d="m86-383 47 417v2026h1567V420l52-421h-611L808 815l-99 1V0H491l47 417v936l-47 416h422q85-1 154-37.5t112-96 68-137 28.5-160-12-165-49-152T1126 900t-124-73l127-308 194-336h205v1698H305V-205h1448v-178zM709 970h261q57 57 90 140t33 179-33.5 180-90.5 141H709zm0 640" horiz-adv-x="1839" unicode="®"/><glyph d="M111 1545v224h414l417 52v-224H527zm831 276" horiz-adv-x="1052" unicode="¯"/><glyph d="M104 1159v610h394l-27-245v-121l27-244zm152 155 63-1v301h-53l-10-86z" horiz-adv-x="602" unicode="°"/><glyph d="m92 822 181 671h170v123l-96-3v-76H195v232h400v-183l30-245H403l-92-367h64l245 30V822zm103 947" horiz-adv-x="716" unicode="²"/><glyph d="m93 1507 275-2v110h-97v-75H120v229h400v-174l30-242-171 1 216-532H101v182l245-30h18l-93 225zm8-685" horiz-adv-x="688" unicode="³"/><glyph d="M113 1769v172h103l417 47v-219zm520 0" horiz-adv-x="745" unicode="´"/><glyph d="m86-744 301 520 180 438v1137l-47 417h219V178h278v1590h224l-51-417V0H684L376-744zm434 2512" horiz-adv-x="1327" unicode="µ"/><glyph d="m86 643 52 416v704h533V412L718-5H499v649zM756 0v1763h172V417L975 0z" horiz-adv-x="1060" unicode="¶"/><glyph d="m103 644 52 416h172V644zm224 0" horiz-adv-x="430" unicode="·"/><glyph d="M96-521 398 0l92 225 204-1-308-745zm394 746" horiz-adv-x="790" unicode="¸"/><glyph d="m102 820 27 241v463l-27 241h206l-28-245v-455l28-245zm0 945" horiz-adv-x="409" unicode="¹"/><glyph d="M94 771v224h415l417 51V823H511zm235 388v610h395l-28-245v-121l28-244zm152 155 64-1v301h-54l-10-86zm445-268" horiz-adv-x="1019" unicode="º"/><glyph d="m86 1244 200 1 148-363-146-359H87l147 359zM166 0l301 521 149 361-149 362-301 521h290l359-883L456 0zm0 1765" horiz-adv-x="901" unicode="»"/><glyph d="m85 0 301 521 511 1244h197L375 0zm25 820 27 241v463l-27 241h205l-27-245v-455l27-245zm638-568 284 695h224l-178-306-98-237h114v207h181l-25-207h61V253h-65V0h-182l30 241v11z" horiz-adv-x="1396" unicode="¼"/><glyph d="m87 0 301 521 511 1244h196L376 0zm24 820 27 241v463l-27 241h206l-28-245v-455l28-245zM764 0l182 671h170v122l-97-2v-76H868v232h400V764l30-245h-223l-92-367h65l245 30V0z" horiz-adv-x="1384" unicode="½"/><glyph d="m85 1510 276-2v110h-97v-75H112v229h400v-174l30-241H371l217-532H93v182l245-30h18l-93 225zM221 0l301 521 511 1244h196L510 0zm613 252 284 695h224l-177-306-99-237h114v207h182l-26-207h62V253h-66l1-253h-182l30 241v11z" horiz-adv-x="1482" unicode="¾"/><glyph d="m92 720 502-1v499h219l-47-417V546l-450 1V178h325v150h172V0H144v304zm497 631v417h224l-52-417zM813 0" horiz-adv-x="905" unicode="¿"/><glyph d="m85 0 301 521 467 1135h-75v219l417-47h103v-172h-67L1906 0h-197l-244 595H617L375 0zm602 768h707l-196 476-186 322zm325 798" unicode="À"/><glyph d="m85 0 301 521 467 1135h-75v172h103l417 47v-219h-67L1906 0h-197l-244 595H617L375 0zm602 768h707l-196 476-186 322zm325 798" unicode="Á"/><glyph d="m85 0 301 521 470 1144-78-9v219h520v-219l-70 8L1906 0h-197l-244 595H617L375 0zm602 768h707l-196 476-186 322zm325 798" unicode="Â"/><glyph d="m85 0 301 521 433 1054-239-30v224h414l417 52v-224h-156L1906 0h-197l-244 595H617L375 0zm602 768h707l-196 476-186 322z" unicode="Ã"/><glyph d="m85 0 301 521 467 1136h-55l-27 218h223v-110h80l-14 110h224v-218h-53L1906 0h-197l-244 595H617L375 0zm602 768h707l-196 476-186 322zm325 798" unicode="Ä"/><glyph d="m85 0 301 521 465 1131-1 568h395l-27-245v-121l25-228L1906 0h-197l-244 595H617L375 0zm602 768h707l-196 476-186 322zm315 997h64v300h-53l-11-86z" unicode="Å"/><glyph d="m88 0 301 521 511 1244h290l565-1387 4 39v934l-47 417h584v-178h-365V951l365 45V772h-365V178h365V0h-584l-244 595H619L377 0zm602 768h707l-196 476-186 322zm325 798" horiz-adv-x="2383" unicode="Æ"/><glyph d="M92 737q-8 147 7 294t71 280 133.5 235.5 193.5 163 251 60.5l222-2-20-178H603q-130-124-205.5-308.5T322 885q0-213 76-398.5T606 178h233v1l111-1L970 0 735-566H446L747-46l15 37h-14Q599-8 477 54T278.5 219.5 151 456.5 92 737m656 1033" horiz-adv-x="1056" unicode="Ç"/><glyph d="m87 0 47 417v934l-47 417h64v107l416-47h104v-238H306V951l365 45-1-224H306V178h365V0zm64 1875" horiz-adv-x="757" unicode="È"/><glyph d="m87 0 47 417v934l-47 417h64v60h103l416 47 1-285H306V951l365 45-1-224H306V178h365V0zm583 1875" horiz-adv-x="757" unicode="É"/><glyph d="m87 0 47 417v934l-47 417h64v107h519l1-285H306V951l365 45-1-224H306V178h365V0zm64 1875" horiz-adv-x="757" unicode="Ê"/><glyph d="m87 0 47 417v934l-47 417h49l-14 110h224v-110h79l-13 110h224v-110h35v-178H306V951l365 45-1-224H306V178h365V0zm35 1878" horiz-adv-x="757" unicode="Ë"/><glyph d="M86 1656v219l417-47h103v-172zM214 0l47 417v755l-47 417h265l-47-417V417L479 0zm0 1589" horiz-adv-x="692" unicode="Ì"/><glyph d="M86 1656v172h103l417 47v-219zM214 0l46 417v755l-46 417h264l-46-417V417L478 0zm264 1589" horiz-adv-x="692" unicode="Í"/><glyph d="M86 1656v219h520v-219l-260 29zM214 0l47 417v755l-47 417h265l-47-417V417L479 0zm0 1589" horiz-adv-x="692" unicode="Î"/><glyph d="M85 1875h224v-218H112zM210 0l46 417v756l-46 416h264l-46-416V417L474 0zm165 1875h224v-218H402zm0 0" horiz-adv-x="684" unicode="Ï"/><glyph d="M86 728v224h324v399l-47 417 344 2q135 0 251-60.5t193.5-163T1285 1311t71-280 7-294-59-280.5-127.5-237T978 54 707-9L363 0l47 417v352zm497-550h266q132 123 208 308.5t76 398.5q0 211-75.5 396T852 1590H583V962l334 42V780H583z" horiz-adv-x="1454" unicode="Ð"/><glyph d="m86 0 47 417v936l-47 416h218L813 518l81-140v1391h217l-46-416V417l49-419H824L304 1276V0zm98 1893v223h415l417 52v-224H601zm710-124" horiz-adv-x="1200" unicode="Ñ"/><glyph d="m85 0 47 417v934l-47 417h181v107l417-47h103v-60h181l-46-417V417L967 0zm220 178h443v1412H305zm443 1412" horiz-adv-x="1052" unicode="Ò"/><glyph d="m85 0 47 417v934l-47 417h181v60h104l416 47v-107h181l-46-417V417L967 0zm220 178h443v1412H305zm0 1412" horiz-adv-x="1052" unicode="Ó"/><glyph d="m85 0 47 417v934l-47 417h181v107h520v-107h181l-46-417V417L967 0zm220 178h443v1412H305zm0 1412" horiz-adv-x="1052" unicode="Ô"/><glyph d="m86 0 46 417v934l-46 417h21v173h414l417 52v-224H523l-10-1h454l-47-417V417L967 0zm219 178h443v1412H305z" horiz-adv-x="1052" unicode="Õ"/><glyph d="m86 0 46 417v934l-46 417h197l-13 107h224v-107h79l-13 107h223v-107h184l-47-417V417L967 0zm219 178h443v1412H305zm0 1412" horiz-adv-x="1052" unicode="Ö"/><glyph d="m86 369 177 305 69 169-69 168-177 305h223l109-266 108 266h224l-177-305-69-168 69-169 177-305H526L418 635 309 369zm0 947" horiz-adv-x="835" unicode="×"/><glyph d="M87.5 843q-1.5 141 24 274t81 254 133 211T512 1725.5t236 53.5h106q121 0 226-48l14 34h196l-56-139q84-79 145.5-193t94.5-241.5 39.5-266.5-14-270-73-250T1297 197 1106 54.5 854 0H748q-89 1-167 23L571 0H282l81 140q-89 77-151.5 191T119 573.5 87.5 843M322 894q0-310 157-554l104 181 435 1059q-13 13-20 19H603q-131-124-206-308.5T322 894m326-707h348q131 123 207 308.5t76 398.5q0 286-133 516z" horiz-adv-x="1601" unicode="Ø"/><glyph d="M86 1589h223V178h279v1411h219l-47-417V0H137v1172zm101 67v219l416-47h103v-172z" horiz-adv-x="892" unicode="Ù"/><glyph d="M86 1589h219V178h278v1411h224l-51-417V0H133v1172zm101 67v172h103l416 47v-219z" horiz-adv-x="892" unicode="Ú"/><glyph d="M86 1589h224V178h278v1411h219l-47-416V0H138v1173zm101 67v219h520v-219l-261 29z" horiz-adv-x="892" unicode="Û"/><glyph d="M86 1589h219V178h278v1411h224l-51-417V0H133v1172zm104 286h224v-218H217zm290 0h223v-218H507z" horiz-adv-x="892" unicode="Ü"/><glyph d="m86 0 301 521 148 361-148 362-301 521h289l260-639 263 639h196L375 0zm281 1769v172h103l417 47v-219z" horiz-adv-x="1179" unicode="Ý"/><glyph d="m87 0 47 417v934l-47 417h264l-29-262h488l-47-417V679l47-417H322L351 0zm218 440h286v888H305zm0 888" horiz-adv-x="897" unicode="Þ"/><glyph d="m87 0 46 417v1352h725v-169l51-416H546v-63h367l-52-417V0H365v179l324-1v770H365v418h321v221H305V0zm46 1769" horiz-adv-x="999" unicode="ß"/><glyph d="m87 0 245 424 336 818h-44v213h27l310-35h102v-178h-38L1531 0h-200l-183 446H545L363 0zm530 625h457L943 946l-115 197zm211 518" horiz-adv-x="1617" unicode="à"/><glyph d="m87 0 245 424 336 818h-44v178h102l337 38v-216h-38L1531 0h-200l-183 446H545L363 0zm531 625h456L943 946l-115 197zm210 518" horiz-adv-x="1617" unicode="á"/><glyph d="m87 0 245 424 337 820-45-5v216h440v-216l-39 4L1531 0h-200l-183 446H545L363 0zm531 625h457L941 948l-112 195zm211 518" horiz-adv-x="1617" unicode="â"/><glyph d="m87 0 245 424 336 818h-26l-27 213h204v-82h47l-11 82h198v-213h-28L1531 0h-200l-183 446H545L363 0zm530 625h457L943 946l-115 197zm211 518" horiz-adv-x="1617" unicode="ä"/><glyph d="m88 0 246 424 1 2 389 947h250l386-947v612l-38 337h490v-183h-274V766l274 33V579h-274V183h274V0h-479l-183 446H546L365 0zm531 625h457L943 949l-112 194zm212 518" horiz-adv-x="1900" unicode="æ"/><glyph d="M86.5 706.5Q90 810 113 907.5t67 184 104.5 151 143.5 102 178 37.5l194-2-21-183H508q-91-89-144-221t-53-283q0-152 53.5-284T510 188h256L788 5 613-420H336L579 0Q478 6 393.5 48.5t-142 111-97 157.5T99 504.5t-12.5 202M606 1382" horiz-adv-x="884" unicode="ç"/><glyph d="m89 0 38 337v701l-38 337h51v83l339-38h100v-228H305V765l274 34-1-220H305V183h274V0zm51 1458" horiz-adv-x="667" unicode="è"/><glyph d="m89 0 38 340v695l-38 340h51v45h102l336 38 1-266H306V766l273 33-1-220H306V183h273V0zm489 1458" horiz-adv-x="667" unicode="é"/><glyph d="m89 0 38 340v695l-38 340h51v80h438l1-263H306V765l273 34-1-220H306V183h273V0zm51 1455" horiz-adv-x="667" unicode="ê"/><glyph d="m89 0 38 340v695l-38 340h36l-10 83h202v-83h50l-10 83h195v-83h27v-183H305V766l274 33-1-220H305V183h274V0zm26 1458" horiz-adv-x="667" unicode="ë"/><glyph d="M86 1242v216l27-3 312-35h99v-178zM179 0l37 337v534l-37 337h253l-38-337V337L432 0zm253 1208" horiz-adv-x="610" unicode="ì"/><glyph d="M86 1242v178h99l312 35 27 3v-216zM178 0l38 337v534l-38 337h253l-37-337V337L431 0zm0 1208" horiz-adv-x="610" unicode="í"/><glyph d="M86 1239v216h438v-216l-219 25zM179 0l37 337v533l-37 337h253l-38-337V337L432 0z" horiz-adv-x="610" unicode="î"/><glyph d="M86 1455h205v-212H113zM180 0l38 337v534l-38 337h254l-39-340V340L434 0zm142 1455h202v-212H348z" horiz-adv-x="610" unicode="ï"/><glyph d="M90 743.5Q82 890 97 1037t71 279.5T301.5 1551 495 1713.5t251 60.5l70-2-1 2-301 521h290l573-1408L1018 0H746Q597 1 475 63T276.5 228 149 464 90 743.5M321 889q0-213 76-398.5T604 182h226l199 344 149 361-149 362-199 345H602q-131-124-206-308.5T321 889m281 705" horiz-adv-x="1462" unicode="ð"/><glyph d="m86 0 38 337v701l-38 337h139v83l340-38h99v-45h139l-38-340V340L803 0zm217 183h283v1009H303zm0 1009" horiz-adv-x="888" unicode="ò"/><glyph d="m86 0 38 337v701l-38 337h139v45h99l340 38v-83h139l-38-340V340L803 0zm217 183h283v1009H303zm0 1009" horiz-adv-x="888" unicode="ó"/><glyph d="m86 0 38 340v695l-38 340h139v80h439v-80h139l-38-337V337L803 0zm217 183h283v1009H303zm0 1009" horiz-adv-x="888" unicode="ô"/><glyph d="m86 0 39 340v695l-39 340h148l-10 80h200v-80h53l-10 80h195v-80h140l-2-27-35-313V340L802 0zm217 183h283v1009H303zm0 1009" horiz-adv-x="888" unicode="ö"/><glyph d="M86 728v224h415l416 52V780H503zM390 0l52 417h172V0zm0 1228v417h224l-52-417zm527-224" horiz-adv-x="1003" unicode="÷"/><glyph d="M87 1204h220V183h160v1021h216l-38-337V0H129v864zm79 38v216l337-38h102v-178zm0 216" horiz-adv-x="770" unicode="ù"/><glyph d="M87 1208h216V183h160v1025h220l-42-340V0H125v871zm78 34v178h102l337 38v-216zm439 216" horiz-adv-x="770" unicode="ú"/><glyph d="M87 1205h220V183h160v1022h216l-38-337V0H129v865zm79 34v216h439v-216l-220 25zm0 216" horiz-adv-x="770" unicode="û"/><glyph d="M87 1209h216V183h160v1026h220l-42-341V0H125v872zm77 246h194v-212H191zm232 0h206v-212H422z" horiz-adv-x="770" unicode="ü"/><glyph d="m86 0 301 521 148 361-148 362-301 521h289l14-34 18 144h197v-218H419l216-531 219 531H670v218h196l18-144 14 34h196L375 0zm321 1875" horiz-adv-x="1179" unicode="ÿ"/><glyph d="M94 746q-8 147 7 294t71 280 133.5 235.5 193.5 163 251 60.5l664-5v-179h-341l-23-209V956l364 46V777l-364 1V400l24-216h340V6L750 0Q601 1 479 63T280.5 228.5 153 465.5 94 746m231 148q0-213 76-398.5T608 187h243l24 210v985l-25 217H605q-130-124-205-309t-75-396m280 705" horiz-adv-x="1503" unicode="Œ"/><glyph d="M92.5 579q-6.5 114 5 228t55.5 217.5 105 183T410.5 1334t198.5 47l523-4v-182H874l-15-133V767l273 34V581H859V323l15-138h258V0H609Q492 1 396 49T240 177 139.5 361t-47 218M314 693q0-152 54-284.5T514 187h149l15 136v734l-15 140H512q-92-89-145-221t-53-283m198 504" horiz-adv-x="1220" unicode="œ"/><glyph horiz-adv-x="1147"/><glyph horiz-adv-x="2295"/><glyph horiz-adv-x="1147"/><glyph horiz-adv-x="2295"/><glyph horiz-adv-x="765"/><glyph horiz-adv-x="573"/><glyph horiz-adv-x="382"/><glyph horiz-adv-x="382"/><glyph horiz-adv-x="286"/><glyph horiz-adv-x="459"/><glyph horiz-adv-x="127"/><glyph d="M103 728v224h414l417 52V780H519zm831 276" horiz-adv-x="1036" unicode="‐"/><glyph d="M103 728v224h414l417 52V780H519zm831 276" horiz-adv-x="1036" unicode="‑"/><glyph d="M103 728v224h414l417 52V780H519zm831 276" horiz-adv-x="1036" unicode="‒"/><glyph d="M103 728v224h510l514 52V780H616zm1024 276" horiz-adv-x="1229" unicode="–"/><glyph d="M103 728v224h1020l1028 52V780H1128zm2048 276" horiz-adv-x="2253" unicode="—"/><glyph d="m97 1323 128 221 92 225 204-1-183-445zm241 0" horiz-adv-x="618" unicode="’"/><glyph horiz-adv-x="459"/><glyph horiz-adv-x="573"/><glyph d="m85 0 47 417v934l-47 417h584v-178H304v-415l334 41V993H304V786l334 41V603H304V178h365V0zm0 1768" horiz-adv-x="753" unicode="€"/><glyph d="M0 0v1372h1372V0z" horiz-adv-x="1372" unicode=""/></font>
</defs>
</svg>
